# Blender 5.2.0 LTS
# www.blender.org
mtllib Untitled.mtl
o SM_Tree_06
v -0.030807 -0.005860 0.003691
v -0.023269 0.108079 -0.017670
v -0.034479 -0.007688 -0.038329
v -0.016862 0.096493 -0.042619
v 0.002112 -0.007855 -0.058288
v 0.035440 -0.006272 -0.037063
v 0.014982 0.080709 -0.042484
v 0.035178 -0.006520 -0.000169
v 0.029596 0.084260 -0.009241
v -0.019106 0.097167 0.006910
v 0.010248 0.074794 0.006183
v 0.001934 -0.005215 0.019346
v 0.015700 0.285237 -0.017848
v -0.020563 0.280402 0.007617
v 0.028424 0.239733 -0.009003
v 0.009445 0.231200 0.019888
v -0.017622 0.302277 -0.007353
v -0.012552 0.258539 -0.017387
v -0.010755 0.287073 0.021151
v 0.018975 0.330331 0.020597
v 0.002597 0.286006 -0.022845
v 0.029389 0.305165 -0.072840
v -0.001988 0.299566 -0.015471
v 0.025491 0.337980 -0.003911
v 0.017741 0.307263 -0.073541
v 0.014616 0.306397 -0.016527
v -0.003102 0.394867 -0.016940
v 0.006728 0.388134 -0.017065
v 0.001711 0.514711 -0.000185
v -0.007069 0.409470 -0.010859
v -0.006039 0.507103 0.011535
v -0.025791 0.287944 0.017214
v -0.074515 0.300689 0.050539
v -0.073779 0.310461 0.050362
v -0.016396 0.308443 0.010005
v -0.069924 0.301921 0.059107
v -0.008120 0.306341 0.021366
v -0.106986 0.320139 0.084622
v -0.112694 0.324265 0.079675
v 0.009137 0.337370 0.025623
v 0.054773 0.489385 -0.082073
v 0.051623 0.485731 -0.085613
v 0.046570 0.490991 -0.086421
v 0.037735 0.479735 -0.066174
v 0.017534 0.413645 -0.010943
v 0.011096 0.419260 -0.014362
v -0.014950 0.398707 -0.069486
v -0.022692 0.408490 -0.082981
v -0.015283 0.408859 -0.082459
v 0.007449 0.404666 -0.032890
v 0.027178 0.421117 -0.031046
v -0.001370 0.400797 0.016287
v 0.019135 0.414734 0.009095
v 0.013326 0.370599 0.018371
v 0.026911 0.368834 0.003913
v 0.080742 0.425043 0.061499
v 0.068145 0.403464 0.065765
v 0.026740 0.334229 0.008639
v 0.082222 0.400762 0.054994
v 0.018415 0.462915 -0.004283
v 0.022485 0.464732 0.008159
v 0.020150 0.482741 0.001409
v 0.072082 0.501298 -0.014770
v 0.090988 0.499199 -0.019089
v 0.081224 0.499305 -0.004768
v 0.007717 0.482118 0.023447
v 0.020796 0.475196 0.013095
v -0.005050 0.517059 0.017928
v 0.006049 0.555599 0.022473
v 0.115657 0.431940 0.089885
v 0.114482 0.440246 0.085179
v 0.107968 0.440703 0.091571
v 0.102543 0.525888 -0.019294
v 0.110391 0.525632 -0.014593
v -0.065469 0.537496 -0.045486
v -0.091585 0.532558 -0.060707
v -0.066266 0.529144 -0.036766
v -0.023546 0.533171 -0.015621
v -0.029121 0.532212 -0.000469
v -0.041867 0.540750 -0.013528
v -0.025672 0.544441 -0.014819
v -0.005536 0.531735 0.003953
v 0.009977 0.610218 0.006330
v -0.008058 0.682020 0.013640
v 0.008205 0.610570 0.018697
v 0.008421 0.621736 0.019027
v -0.012251 0.683720 0.007641
v -0.002697 0.683948 0.006115
v 0.012910 0.623329 0.011588
v 0.064558 0.629476 0.025584
v 0.064072 0.634679 0.031491
vn -0.9931 0.0788 0.0867
vn -0.4811 0.0473 -0.8754
vn 0.5350 0.0708 -0.8419
vn 0.0079 -0.9998 0.0158
vn -0.0088 -0.9985 0.0534
vn -0.0081 -0.9986 0.0526
vn -0.0079 -0.9989 0.0472
vn 0.0550 -0.9985 -0.0079
vn 0.9980 0.0629 0.0079
vn 0.0865 0.1651 -0.9825
vn -0.9395 0.1500 -0.3079
vn -0.9716 0.1027 0.2133
vn 0.8933 0.1818 -0.4111
vn 0.5831 0.1182 0.8037
vn -0.0078 -0.9985 0.0550
vn -0.4313 0.0235 0.9019
vn 0.5044 0.0867 0.8591
vn 0.1343 0.1501 0.9795
vn 0.0629 0.1180 -0.9910
vn -0.9861 -0.0079 0.1657
vn 0.9154 0.0078 -0.4026
vn 0.6370 -0.0613 0.7684
vn 0.6397 -0.0632 0.7660
vn 0.6339 -0.0629 0.7709
vn -0.0395 -0.0869 0.9954
vn -0.9625 0.0394 -0.2683
vn 0.7394 0.0787 -0.6686
vn -0.4547 0.1489 -0.8781
vn -0.1649 0.1571 -0.9737
vn -0.9892 0.0392 -0.1413
vn -0.1257 -0.0706 0.9896
vn -0.8084 -0.0078 0.5886
vn 0.9591 0.0079 0.2830
vn 0.6311 -0.0631 0.7731
vn 0.0708 -0.9439 -0.3225
vn -0.4327 0.1495 -0.8890
vn 0.3154 -0.3470 -0.8832
vn -0.6278 0.1962 -0.7533
vn 0.7021 0.0553 -0.7100
vn -0.1340 -0.8986 -0.4178
vn 0.1733 0.9846 0.0236
vn -0.9335 -0.1345 -0.3323
vn -0.3795 0.9251 -0.0079
vn -0.4628 -0.0157 -0.8863
vn -0.0550 -0.0157 -0.9984
vn 0.9673 0.0315 0.2517
vn -0.8651 0.1179 -0.4876
vn 0.6474 0.0790 -0.7580
vn -0.1105 -0.9708 0.2131
vn -0.1178 -0.9707 0.2093
vn -0.1139 -0.9709 0.2107
vn -0.5742 0.0315 -0.8181
vn -0.5689 -0.0316 -0.8218
vn 0.5255 -0.0784 0.8471
vn 0.1099 0.9887 0.1020
vn -0.2682 -0.9229 0.2761
vn -0.5972 0.0314 -0.8015
vn -0.5502 -0.8332 -0.0550
vn 0.4573 0.8672 0.1971
vn -0.1176 -0.9719 0.2038
vn -0.1021 0.9268 -0.3613
vn 0.5270 -0.1180 0.8416
vn -0.1888 -0.8183 0.5429
vn -0.8057 0.1659 -0.5687
vn -0.0868 -0.0553 0.9947
vn -0.9898 0.1414 0.0157
vn 0.4246 -0.0472 0.9042
vn -0.2901 0.0314 0.9565
vn 0.4904 0.3481 -0.7989
vn -0.0709 0.8825 0.4649
vn 0.6776 0.0630 -0.7327
vn -0.7697 0.0550 -0.6361
vn -0.0235 -0.0157 -0.9996
vn 0.5362 -0.0237 -0.8438
vn 0.1182 0.6145 0.7800
vn 0.0786 -0.7861 -0.6131
vn 0.7797 -0.4804 -0.4017
vn -0.8831 -0.4257 0.1971
vn -0.0393 0.9903 -0.1336
vn 0.8827 0.2679 -0.3862
vn -0.9266 -0.3298 0.1806
vn 0.5114 -0.8418 -0.1731
vn -0.4326 -0.6135 -0.6607
vn -0.4581 0.8847 0.0869
vn 0.5508 -0.5902 -0.5902
vn -0.9457 0.0788 -0.3152
vn 0.8668 -0.4255 0.2600
vn 0.9068 -0.0552 0.4179
vn -0.9370 0.3386 -0.0866
vn -0.9970 0.0549 0.0549
vn -0.2519 0.1181 -0.9605
vn 0.4174 0.5041 0.7561
vn -0.9299 0.2601 -0.2601
vn 0.8350 -0.5041 -0.2206
vn -0.2837 -0.4098 -0.8669
vn 0.5820 -0.6449 -0.4954
vn -0.4815 0.0158 0.8763
vn 0.7334 0.0473 0.6782
vn 0.9812 0.1727 -0.0863
vn -0.3708 0.8126 -0.4496
vn -0.7170 0.5122 0.4728
vn 0.2203 0.1731 0.9599
vn -0.7103 0.2367 0.6629
vn 0.6360 0.1649 -0.7538
vn 0.4084 -0.7226 0.5577
vn 0.8204 -0.5205 -0.2367
vn 0.5371 0.1027 -0.8373
vn 0.2367 0.1814 0.9545
vn 0.2906 0.1650 -0.9425
vn -0.3621 0.0787 0.9288
vn -0.7960 0.0867 0.5990
vn 0.9136 0.0630 -0.4017
vn 0.9492 0.0236 -0.3138
vn 0.6474 0.4895 0.5842
vn 0.8506 -0.0788 0.5198
vn 0.4402 0.2122 -0.8725
vn -0.3778 0.2833 -0.8815
vn 0.4408 -0.8974 -0.0157
vn -0.2049 0.9060 0.3703
vn 0.4022 -0.1262 0.9068
vn 0.5960 -0.0706 0.7999
vn -0.6456 0.0079 0.7636
vn 0.9943 -0.0710 -0.0789
vn 0.9038 -0.0550 0.4244
vn 0.9957 0.0316 -0.0870
vn -0.8424 -0.2284 0.4881
vn 0.6283 0.0235 0.7776
vn 0.3858 -0.3386 0.8582
vn -0.1649 0.8243 0.5417
vn 0.6351 -0.7684 0.0783
vn -0.2829 -0.2986 0.9115
vn 0.8338 -0.3619 -0.4169
vn 0.4246 0.3538 -0.8334
vn -0.7490 0.5204 0.4100
vn 0.7921 -0.2117 -0.5725
vn -0.2201 0.0393 -0.9747
vn 0.5279 -0.7643 0.3703
vn -0.2119 0.0864 -0.9735
vn -0.4496 0.7021 0.5522
vn 0.6756 -0.5734 0.4635
vn -0.2283 -0.3778 0.8973
vn -0.2208 0.9306 -0.2918
vn 0.6462 0.4413 0.6226
vn -0.4641 0.6607 0.5899
vn 0.2919 -0.8523 -0.4340
vn 0.1026 -0.9944 -0.0237
vn 0.5203 -0.3468 -0.7804
vn -0.6996 0.5502 0.4559
vn 0.5829 0.1654 -0.7956
vn -0.2199 0.9735 0.0628
vn -0.6984 0.0471 0.7141
vn -0.1261 0.7723 0.6226
vn -0.1817 -0.7663 -0.6162
vn -0.6376 -0.7163 -0.2834
vn 0.6005 0.1659 -0.7822
vn 0.7451 0.4392 -0.5019
vn -0.1022 0.7706 0.6290
vn -0.6958 -0.3401 0.6326
vn -0.1177 0.6823 0.7215
vn -0.3863 -0.0000 0.9224
vn 0.9969 0.0785 -0.0000
vn 0.1731 0.0551 -0.9834
vn -0.3219 0.0942 -0.9421
vn 0.8437 0.0946 0.5283
vn -0.9998 -0.0157 0.0157
vn -0.4253 0.0158 0.9049
vn 0.9895 -0.0314 0.1414
vn 0.9800 -0.0237 0.1976
vn 0.0236 0.0236 -0.9994
vn -0.8275 -0.0473 0.5595
vn -0.1180 0.0551 0.9915
vn 0.7100 0.1184 -0.6942
vn 0.3083 -0.9486 0.0712
vn 0.2128 0.3231 -0.9221
vn -0.2365 0.9696 0.0631
vn -0.2127 -0.0237 0.9768
vn 0.1653 -0.7319 0.6610
vn 0.0869 0.7502 -0.6555
vn 0.7989 0.2689 0.5379
vn -0.1579 -0.0316 -0.9870
vn 0.0157 0.9657 0.2591
vn 0.7550 0.2516 0.6055
vn 0.4949 -0.2200 -0.8406
vn -0.3934 0.6137 0.6845
vt 0.813477 0.005859
vt 0.813477 0.044922
vt 0.813477 0.040039
vt 0.813477 0.036133
vt 0.813477 0.037598
vt 0.813477 0.039551
vt 0.813477 0.034180
vt 0.813477 0.095703
vt 0.813477 0.095215
vt 0.813477 0.081055
vt 0.813477 0.079102
vt 0.813477 0.103027
vt 0.813477 0.087891
vt 0.813477 0.096680
vt 0.813477 0.109863
vt 0.813477 0.096191
vt 0.813477 0.104492
vt 0.813477 0.101074
vt 0.813477 0.111328
vt 0.813477 0.104980
vt 0.813477 0.102051
vt 0.813477 0.137207
vt 0.813477 0.132812
vt 0.813477 0.181152
vt 0.813477 0.141602
vt 0.813477 0.178223
vt 0.813477 0.098633
vt 0.813477 0.107422
vt 0.813477 0.110840
vt 0.813477 0.107910
vt 0.813477 0.114258
vt 0.813477 0.114746
vt 0.813477 0.112793
vt 0.813477 0.159180
vt 0.813477 0.157227
vt 0.813477 0.155273
vt 0.813477 0.140625
vt 0.813477 0.144531
vt 0.813477 0.147461
vt 0.813477 0.151855
vt 0.813477 0.152344
vt 0.813477 0.142090
vt 0.813477 0.142578
vt 0.813477 0.134277
vt 0.813477 0.138672
vt 0.813477 0.122070
vt 0.813477 0.129395
vt 0.813477 0.128418
vt 0.813477 0.158203
vt 0.813477 0.168457
vt 0.813477 0.178711
vt 0.813477 0.180176
vt 0.813477 0.179199
vt 0.813477 0.168945
vt 0.813477 0.164551
vt 0.813477 0.184082
vt 0.813477 0.198730
vt 0.813477 0.138184
vt 0.813477 0.140137
vt 0.813477 0.188477
vt 0.813477 0.196777
vt 0.813477 0.199707
vt 0.813477 0.194336
vt 0.813477 0.186523
vt 0.813477 0.187500
vt 0.813477 0.191895
vt 0.813477 0.190918
vt 0.813477 0.188965
vt 0.813477 0.219727
vt 0.813477 0.241211
vt 0.813477 0.220215
vt 0.813477 0.224609
vt 0.813477 0.225586
vt 0.813477 0.229980
vt 0.813477 0.230957
s 1
usemtl M_Atlas
f 1/1/1 2/2/1 3/1/1
f 3/1/2 4/3/2 5/1/2
f 6/1/3 5/1/3 7/4/3
f 5/1/4 8/1/4 3/1/4
f 8/1/5 1/1/6 3/1/7
f 8/1/8 5/1/8 6/1/8
f 6/1/9 9/5/9 8/1/9
f 4/3/10 7/4/10 5/1/10
f 4/3/11 3/1/11 2/2/11
f 2/2/12 1/1/12 10/6/12
f 7/4/13 9/5/13 6/1/13
f 9/5/14 11/7/14 8/1/14
f 1/1/6 8/1/5 12/1/15
f 10/6/16 1/1/16 12/1/16
f 11/7/17 12/1/17 8/1/17
f 12/1/18 11/7/18 10/6/18
f 4/3/19 13/8/19 7/4/19
f 2/2/20 10/6/20 14/9/20
f 15/10/21 9/5/21 7/4/21
f 16/11/22 11/7/23 9/5/24
f 11/7/25 16/11/25 10/6/25
f 2/2/26 17/12/26 4/3/26
f 13/8/27 15/10/27 7/4/27
f 4/3/28 17/12/28 18/13/28
f 4/3/29 18/13/29 13/8/29
f 17/12/30 2/2/30 14/9/30
f 19/14/31 10/6/31 16/11/31
f 19/14/32 14/9/32 10/6/32
f 9/5/33 15/10/33 20/15/33
f 20/15/34 16/11/22 9/5/24
f 21/16/35 22/17/35 13/8/35
f 23/18/36 18/13/36 17/12/36
f 18/13/37 21/16/37 13/8/37
f 18/13/38 23/18/38 21/16/38
f 13/8/39 24/19/39 15/10/39
f 21/16/40 25/20/40 22/17/40
f 22/17/41 25/20/41 26/21/41
f 23/18/42 25/20/42 21/16/42
f 25/20/43 23/18/43 26/21/43
f 27/22/44 23/18/44 17/12/44
f 23/18/45 28/23/45 26/21/45
f 26/21/46 13/8/46 22/17/46
f 29/24/47 30/25/47 31/26/47
f 24/19/48 13/8/48 26/21/48
f 32/27/49 19/14/50 33/28/51
f 33/28/52 34/29/52 35/20/52
f 33/28/53 35/20/53 32/27/53
f 36/30/54 19/14/54 37/17/54
f 34/29/55 37/17/55 35/20/55
f 36/30/56 38/31/56 33/28/56
f 39/32/57 34/29/57 33/28/57
f 38/31/58 39/32/58 33/28/58
f 39/32/59 38/31/59 34/29/59
f 33/28/51 19/14/50 36/30/60
f 34/29/61 38/31/61 37/17/61
f 37/17/62 38/31/62 36/30/62
f 32/27/63 14/9/63 19/14/63
f 35/20/64 14/9/64 32/27/64
f 40/33/65 19/14/65 16/11/65
f 14/9/66 35/20/66 17/12/66
f 16/11/67 20/15/67 40/33/67
f 40/33/68 37/17/68 19/14/68
f 41/34/69 42/35/69 43/34/69
f 44/36/70 41/34/70 43/34/70
f 28/23/71 24/19/71 26/21/71
f 17/12/72 30/25/72 27/22/72
f 23/18/73 27/22/73 28/23/73
f 24/19/74 28/23/74 45/37/74
f 46/38/75 45/37/75 44/36/75
f 47/39/76 48/40/76 49/41/76
f 50/42/77 47/39/77 49/41/77
f 30/25/78 48/40/78 47/39/78
f 46/38/79 49/41/79 48/40/79
f 46/38/80 50/42/80 49/41/80
f 27/22/81 30/25/81 47/39/81
f 27/22/82 47/39/82 50/42/82
f 28/23/83 27/22/83 50/42/83
f 48/40/84 30/25/84 46/38/84
f 28/23/85 50/42/85 51/43/85
f 30/25/86 17/12/86 31/26/86
f 28/23/87 51/43/87 45/37/87
f 45/37/88 51/43/88 41/34/88
f 44/36/89 50/42/89 46/38/89
f 35/20/90 31/26/90 17/12/90
f 30/25/91 29/24/91 46/38/91
f 44/36/92 45/37/92 41/34/92
f 44/36/93 43/34/93 50/42/93
f 51/43/94 42/35/94 41/34/94
f 50/42/95 43/34/95 42/35/95
f 50/42/96 42/35/96 51/43/96
f 31/26/97 35/20/97 52/44/97
f 53/45/98 54/46/98 55/46/98
f 55/46/99 45/37/99 53/45/99
f 54/46/100 56/44/100 55/46/100
f 57/47/101 56/44/101 54/46/101
f 54/46/102 53/45/102 52/44/102
f 40/33/103 57/47/103 54/46/103
f 56/44/104 24/19/104 55/46/104
f 40/33/105 58/29/105 59/48/105
f 58/29/106 24/19/106 59/48/106
f 46/38/107 60/49/107 45/37/107
f 54/46/108 52/44/108 40/33/108
f 29/24/109 60/49/109 46/38/109
f 40/33/110 52/44/110 37/17/110
f 35/20/111 37/17/111 52/44/111
f 45/37/112 55/46/112 24/19/112
f 45/37/113 60/49/113 61/49/113
f 20/15/114 58/29/114 40/33/114
f 15/10/115 58/29/115 20/15/115
f 62/50/116 60/49/116 29/24/116
f 62/50/117 63/51/117 60/49/117
f 60/49/118 64/52/118 61/49/118
f 63/51/119 62/50/119 65/53/119
f 53/45/120 66/54/120 52/44/120
f 66/54/121 53/45/121 67/55/121
f 52/44/122 66/54/122 31/26/122
f 53/45/123 45/37/123 61/49/123
f 61/49/124 67/55/124 53/45/124
f 24/19/125 58/29/125 15/10/125
f 66/54/126 68/56/126 31/26/126
f 67/55/127 69/57/127 66/54/127
f 67/55/128 61/49/128 65/53/128
f 67/55/129 65/53/129 62/50/129
f 70/58/130 40/33/130 59/48/130
f 70/58/131 57/47/131 40/33/131
f 71/59/132 59/48/132 24/19/132
f 56/44/133 71/59/133 24/19/133
f 56/44/134 57/47/134 72/37/134
f 70/58/135 59/48/135 71/59/135
f 64/52/136 60/49/136 63/51/136
f 64/52/137 65/53/137 61/49/137
f 63/51/138 73/60/138 64/52/138
f 65/53/139 74/60/139 63/51/139
f 64/52/140 74/60/140 65/53/140
f 70/58/141 72/37/141 57/47/141
f 72/37/142 71/59/142 56/44/142
f 72/37/143 70/58/143 71/59/143
f 75/61/144 76/62/144 77/63/144
f 77/63/145 76/62/145 78/64/145
f 79/65/146 77/63/146 78/64/146
f 78/64/147 76/62/147 75/61/147
f 80/66/148 75/61/148 77/63/148
f 78/64/149 75/61/149 81/67/149
f 81/67/150 75/61/150 80/66/150
f 79/65/151 80/66/151 77/63/151
f 79/65/152 81/67/152 80/66/152
f 31/26/153 78/64/153 29/24/153
f 79/65/154 78/64/154 31/26/154
f 81/67/155 29/24/155 78/64/155
f 29/24/156 81/67/156 82/68/156
f 82/68/157 81/67/157 79/65/157
f 68/56/158 79/65/158 31/26/158
f 68/56/159 82/68/159 79/65/159
f 66/54/160 69/57/160 68/56/160
f 83/69/161 67/55/161 62/50/161
f 29/24/162 83/69/162 62/50/162
f 29/24/163 82/68/163 83/69/163
f 67/55/164 83/69/164 69/57/164
f 68/56/165 84/70/165 82/68/165
f 68/56/166 69/57/166 84/70/166
f 85/71/167 69/57/167 83/69/167
f 85/71/168 86/72/168 69/57/168
f 82/68/169 87/70/169 83/69/169
f 82/68/170 84/70/170 87/70/170
f 86/72/171 84/70/171 69/57/171
f 83/69/172 88/70/172 89/73/172
f 90/74/173 85/71/173 83/69/173
f 90/74/174 83/69/174 89/73/174
f 91/75/175 89/73/175 86/72/175
f 91/75/176 86/72/176 85/71/176
f 91/75/177 85/71/177 90/74/177
f 91/75/178 90/74/178 89/73/178
f 86/72/179 89/73/179 84/70/179
f 87/70/180 88/70/180 83/69/180
f 88/70/181 87/70/181 84/70/181
f 89/73/182 88/70/182 84/70/182
f 73/60/183 74/60/183 64/52/183
f 63/51/184 74/60/184 73/60/184
